<?xml version="1.0" encoding="utf-8" standalone="no"?>
<!DOCTYPE svg PUBLIC "-//W3C//DTD SVG 1.1//EN"
  "http://www.w3.org/Graphics/SVG/1.1/DTD/svg11.dtd">
<svg xmlns:xlink="http://www.w3.org/1999/xlink" width="144pt" height="144pt" viewBox="0 0 144 144" xmlns="http://www.w3.org/2000/svg" version="1.1">
 <metadata>
  <rdf:RDF xmlns:dc="http://purl.org/dc/elements/1.1/" xmlns:cc="http://creativecommons.org/ns#" xmlns:rdf="http://www.w3.org/1999/02/22-rdf-syntax-ns#">
   <cc:Work>
    <dc:type rdf:resource="http://purl.org/dc/dcmitype/StillImage"/>
    <dc:date>2023-03-17T11:07:05.492501</dc:date>
    <dc:format>image/svg+xml</dc:format>
    <dc:creator>
     <cc:Agent>
      <dc:title>Matplotlib v3.6.1, https://matplotlib.org/</dc:title>
     </cc:Agent>
    </dc:creator>
   </cc:Work>
  </rdf:RDF>
 </metadata>
 <defs>
  <style type="text/css">*{stroke-linejoin: round; stroke-linecap: butt}</style>
 </defs>
 <g id="figure_1">
  <g id="patch_1">
   <path d="M 0 144 
L 144 144 
L 144 0 
L 0 0 
z
" style="fill: #ffffff"/>
  </g>
  <g id="axes_1">
   <g id="text_1">
    <!--  -->
    <g style="fill: #37306b" transform="translate(42.55 80.160625) scale(0.2 -0.2)">
     <defs>
      <path id="FontAwesome6Free-Regular-f58b" d="M 4350 75 
Q 4400 225 4400 400 
L 4400 1050 
Q 4563 1213 4688 1388 
Q 4775 1550 4663 1663 
Q 4550 1775 4375 1750 
Q 3825 1613 3200 1613 
Q 2575 1613 2025 1750 
Q 1838 1775 1738 1663 
Q 1625 1550 1713 1388 
Q 1838 1200 2000 1050 
L 2000 400 
Q 2000 225 2050 75 
Q 1388 400 1000 1013 
Q 613 1625 600 2400 
Q 625 3500 1363 4238 
Q 2100 4975 3200 5000 
Q 4300 4975 5038 4238 
Q 5775 3500 5800 2400 
Q 5788 1625 5400 1013 
Q 5013 400 4350 75 
L 4350 75 
z
M 3200 -800 
Q 4075 -788 4800 -375 
L 4800 -375 
Q 5525 50 5975 800 
Q 6400 1563 6400 2400 
Q 6400 3238 5975 4000 
Q 5525 4750 4800 5175 
Q 4075 5588 3200 5600 
Q 2325 5588 1600 5175 
Q 875 4750 425 4000 
Q 0 3238 0 2400 
Q 0 1563 425 800 
Q 875 50 1600 -375 
Q 2325 -788 3200 -800 
L 3200 -800 
z
M 2000 2850 
Q 2200 2850 2313 2725 
Q 2488 2575 2663 2713 
Q 2825 2888 2675 3075 
Q 2388 3350 2000 3350 
Q 1613 3350 1313 3075 
Q 1175 2888 1325 2713 
Q 1500 2575 1675 2725 
Q 1788 2838 2000 2850 
L 2000 2850 
z
M 4200 2700 
Q 4475 2725 4500 3000 
Q 4475 3275 4200 3300 
Q 3925 3275 3900 3000 
Q 3925 2725 4200 2700 
L 4200 2700 
z
M 4200 3600 
Q 4538 3588 4713 3300 
Q 4875 3000 4713 2700 
Q 4538 2413 4200 2400 
Q 3863 2413 3675 2700 
Q 3513 3000 3675 3300 
Q 3863 3588 4200 3600 
L 4200 3600 
z
M 4200 2000 
Q 4763 2013 5063 2500 
Q 5338 3000 5063 3500 
Q 4763 3988 4200 4000 
Q 3638 3988 3338 3500 
Q 3063 3000 3338 2500 
Q 3638 2013 4200 2000 
L 4200 2000 
z
M 4000 400 
Q 3988 63 3763 -163 
L 3763 -163 
Q 3538 -388 3200 -400 
Q 2863 -388 2638 -163 
Q 2413 63 2400 400 
L 2400 863 
Q 2425 1175 2738 1200 
L 2763 1200 
Q 2988 1188 3050 963 
Q 3088 850 3200 850 
Q 3313 850 3350 963 
Q 3413 1188 3638 1200 
L 3663 1200 
Q 3975 1175 4000 863 
L 4000 400 
L 4000 400 
z
" transform="scale(0.015625)"/>
      <path id="FontAwesome6Free-Regular-f005" d="M 3600 5600 
Q 3788 5588 3875 5425 
L 4725 3663 
L 6638 3375 
Q 6825 3350 6888 3175 
Q 6938 3000 6813 2875 
L 5425 1500 
L 5750 -450 
Q 5775 -625 5625 -738 
Q 5463 -838 5313 -763 
L 3600 150 
L 1875 -763 
Q 1725 -838 1575 -738 
Q 1425 -625 1438 -450 
L 1775 1500 
L 388 2875 
Q 263 3000 313 3175 
Q 375 3350 550 3375 
L 2475 3663 
L 3325 5425 
Q 3413 5588 3600 5600 
L 3600 5600 
L 3600 5600 
z
M 3600 4613 
L 2938 3263 
Q 2875 3125 2713 3088 
L 1238 2875 
L 2313 1813 
Q 2413 1700 2400 1550 
L 2138 50 
L 3463 750 
Q 3600 825 3738 750 
L 5050 50 
L 4800 1550 
Q 4775 1700 4888 1813 
L 5963 2875 
L 4488 3088 
Q 4325 3125 4263 3263 
L 3600 4613 
L 3600 4613 
z
" transform="scale(0.015625)"/>
      <path id="FontAwesome6Free-Regular-f59b" d="M 5800 2400 
Q 5800 3113 5450 3700 
L 5450 3700 
Q 5113 4288 4500 4650 
Q 3888 5000 3200 5000 
Q 2513 5000 1900 4650 
Q 1288 4288 950 3700 
Q 600 3113 600 2400 
Q 600 1688 950 1100 
Q 1288 513 1900 150 
Q 2513 -200 3200 -200 
Q 3888 -200 4500 150 
Q 5113 513 5450 1100 
Q 5800 1688 5800 2400 
L 5800 2400 
z
M 0 2400 
Q 13 3275 425 4000 
L 425 4000 
Q 850 4725 1600 5175 
Q 2363 5600 3200 5600 
Q 4038 5600 4800 5175 
Q 5550 4725 5975 4000 
Q 6388 3275 6400 2400 
Q 6388 1525 5975 800 
Q 5550 75 4800 -375 
Q 4038 -800 3200 -800 
Q 2363 -800 1600 -375 
Q 850 75 425 800 
Q 13 1525 0 2400 
L 0 2400 
z
M 1638 1675 
Q 1600 1813 1675 1900 
L 1675 1900 
Q 1763 2000 1900 2000 
L 4563 2000 
Q 4700 2000 4775 1900 
Q 4863 1813 4825 1675 
Q 4650 1150 4225 838 
Q 3800 513 3225 500 
Q 2650 513 2225 838 
Q 1800 1150 1638 1675 
L 1638 1675 
z
M 1675 3963 
L 2788 3363 
Q 2888 3313 2888 3200 
Q 2888 3100 2788 3038 
L 1675 2438 
Q 1588 2400 1525 2438 
Q 1450 2475 1450 2563 
Q 1450 2625 1488 2663 
L 1938 3200 
L 1488 3738 
Q 1450 3788 1450 3838 
Q 1450 3925 1525 3963 
Q 1588 4000 1675 3963 
L 1675 3963 
z
M 4950 3838 
Q 4950 3788 4913 3738 
L 4463 3200 
L 4913 2663 
Q 4950 2625 4950 2563 
Q 4950 2475 4875 2438 
Q 4813 2400 4738 2438 
L 3613 3038 
Q 3513 3100 3513 3200 
Q 3513 3313 3613 3363 
L 4738 3963 
Q 4813 4000 4875 3963 
Q 4950 3925 4950 3838 
L 4950 3838 
z
" transform="scale(0.015625)"/>
     </defs>
     <use xlink:href="#FontAwesome6Free-Regular-f58b"/>
     <use xlink:href="#FontAwesome6Free-Regular-f005" x="100"/>
     <use xlink:href="#FontAwesome6Free-Regular-f59b" x="212.5"/>
    </g>
   </g>
  </g>
 </g>
</svg>
