<?xml version="1.0" encoding="utf-8" standalone="no"?>
<!DOCTYPE svg PUBLIC "-//W3C//DTD SVG 1.1//EN"
  "http://www.w3.org/Graphics/SVG/1.1/DTD/svg11.dtd">
<svg xmlns:xlink="http://www.w3.org/1999/xlink" width="216pt" height="216pt" viewBox="0 0 216 216" xmlns="http://www.w3.org/2000/svg" version="1.1">
 <metadata>
  <rdf:RDF xmlns:dc="http://purl.org/dc/elements/1.1/" xmlns:cc="http://creativecommons.org/ns#" xmlns:rdf="http://www.w3.org/1999/02/22-rdf-syntax-ns#">
   <cc:Work>
    <dc:type rdf:resource="http://purl.org/dc/dcmitype/StillImage"/>
    <dc:date>2023-03-17T11:07:05.452501</dc:date>
    <dc:format>image/svg+xml</dc:format>
    <dc:creator>
     <cc:Agent>
      <dc:title>Matplotlib v3.6.1, https://matplotlib.org/</dc:title>
     </cc:Agent>
    </dc:creator>
   </cc:Work>
  </rdf:RDF>
 </metadata>
 <defs>
  <style type="text/css">*{stroke-linejoin: round; stroke-linecap: butt}</style>
 </defs>
 <g id="figure_1">
  <g id="patch_1">
   <path d="M 0 216 
L 216 216 
L 216 0 
L 0 0 
z
" style="fill: #ffffff"/>
  </g>
  <g id="axes_1">
   <g id="text_1">
    <!-- Lato -->
    <g transform="translate(87.3 99.228) scale(0.24 -0.24)">
     <defs>
      <path id="Lato-Regular-4c" d="M 1178 522 
L 3162 522 
L 3162 0 
L 557 0 
L 557 4586 
L 1178 4586 
L 1178 522 
z
" transform="scale(0.015625)"/>
      <path id="Lato-Regular-61" d="M 2848 0 
L 2595 0 
Q 2512 0 2461 25 
Q 2410 51 2394 134 
L 2330 435 
Q 2202 320 2080 229 
Q 1958 138 1824 75 
Q 1690 13 1538 -19 
Q 1386 -51 1200 -51 
Q 1011 -51 846 1 
Q 682 54 560 160 
Q 438 266 366 427 
Q 294 589 294 810 
Q 294 1002 400 1179 
Q 506 1357 741 1494 
Q 976 1632 1357 1720 
Q 1738 1808 2288 1821 
L 2288 2074 
Q 2288 2451 2126 2644 
Q 1965 2838 1648 2838 
Q 1440 2838 1297 2785 
Q 1155 2733 1051 2667 
Q 947 2602 872 2549 
Q 797 2496 723 2496 
Q 666 2496 622 2526 
Q 579 2557 554 2602 
L 451 2784 
Q 720 3043 1030 3171 
Q 1341 3299 1718 3299 
Q 1990 3299 2201 3209 
Q 2413 3120 2557 2960 
Q 2701 2800 2774 2573 
Q 2848 2346 2848 2074 
L 2848 0 
z
M 1370 349 
Q 1520 349 1645 379 
Q 1770 410 1880 466 
Q 1990 522 2091 602 
Q 2192 682 2288 784 
L 2288 1459 
Q 1894 1446 1619 1396 
Q 1344 1347 1171 1267 
Q 998 1187 920 1078 
Q 842 970 842 835 
Q 842 707 883 614 
Q 925 522 995 462 
Q 1066 403 1162 376 
Q 1258 349 1370 349 
z
" transform="scale(0.015625)"/>
      <path id="Lato-Regular-74" d="M 1450 -51 
Q 1066 -51 859 163 
Q 653 378 653 781 
L 653 2765 
L 262 2765 
Q 211 2765 176 2795 
Q 141 2826 141 2890 
L 141 3117 
L 672 3184 
L 803 4186 
Q 810 4234 845 4264 
Q 880 4294 934 4294 
L 1222 4294 
L 1222 3178 
L 2150 3178 
L 2150 2765 
L 1222 2765 
L 1222 819 
Q 1222 614 1321 515 
Q 1421 416 1578 416 
Q 1667 416 1732 440 
Q 1798 464 1846 493 
Q 1894 522 1928 546 
Q 1962 570 1987 570 
Q 2032 570 2067 515 
L 2234 243 
Q 2086 106 1878 27 
Q 1670 -51 1450 -51 
z
" transform="scale(0.015625)"/>
      <path id="Lato-Regular-6f" d="M 1779 3293 
Q 2134 3293 2420 3174 
Q 2707 3056 2907 2838 
Q 3107 2621 3214 2312 
Q 3322 2003 3322 1622 
Q 3322 1238 3214 931 
Q 3107 624 2907 406 
Q 2707 189 2420 72 
Q 2134 -45 1779 -45 
Q 1424 -45 1137 72 
Q 851 189 649 406 
Q 448 624 339 931 
Q 230 1238 230 1622 
Q 230 2003 339 2312 
Q 448 2621 649 2838 
Q 851 3056 1137 3174 
Q 1424 3293 1779 3293 
z
M 1779 400 
Q 2259 400 2496 721 
Q 2733 1043 2733 1619 
Q 2733 2198 2496 2521 
Q 2259 2845 1779 2845 
Q 1536 2845 1357 2761 
Q 1178 2678 1058 2521 
Q 938 2365 878 2136 
Q 819 1907 819 1619 
Q 819 1331 878 1104 
Q 938 877 1058 721 
Q 1178 566 1357 483 
Q 1536 400 1779 400 
z
" transform="scale(0.015625)"/>
     </defs>
     <use xlink:href="#Lato-Regular-4c"/>
     <use xlink:href="#Lato-Regular-61" x="51.400009"/>
     <use xlink:href="#Lato-Regular-74" x="102.100021"/>
     <use xlink:href="#Lato-Regular-6f" x="139.400024"/>
    </g>
   </g>
   <g id="text_2">
    <!-- Almost before we knew it, -->
    <g transform="translate(20.33375 121.701) scale(0.16 -0.16)">
     <defs>
      <path id="Lato-Regular-41" d="M 4330 0 
L 3850 0 
Q 3766 0 3715 41 
Q 3664 83 3638 147 
L 3210 1254 
L 1152 1254 
L 723 147 
Q 701 90 646 45 
Q 592 0 512 0 
L 32 0 
L 1866 4586 
L 2496 4586 
L 4330 0 
z
M 1325 1702 
L 3037 1702 
L 2317 3568 
Q 2246 3741 2179 4000 
Q 2144 3869 2110 3758 
Q 2077 3648 2045 3565 
L 1325 1702 
z
" transform="scale(0.015625)"/>
      <path id="Lato-Regular-6c" d="M 1101 4714 
L 1101 0 
L 531 0 
L 531 4714 
L 1101 4714 
z
" transform="scale(0.015625)"/>
      <path id="Lato-Regular-6d" d="M 467 0 
L 467 3242 
L 806 3242 
Q 928 3242 960 3123 
L 1002 2790 
Q 1181 3011 1403 3152 
Q 1626 3293 1920 3293 
Q 2250 3293 2453 3110 
Q 2656 2928 2746 2618 
Q 2813 2794 2923 2922 
Q 3034 3050 3171 3133 
Q 3309 3216 3464 3254 
Q 3619 3293 3779 3293 
Q 4035 3293 4235 3211 
Q 4435 3130 4574 2973 
Q 4714 2816 4787 2587 
Q 4861 2358 4861 2064 
L 4861 0 
L 4291 0 
L 4291 2064 
Q 4291 2445 4124 2641 
Q 3958 2838 3642 2838 
Q 3501 2838 3374 2788 
Q 3248 2739 3152 2643 
Q 3056 2547 3000 2401 
Q 2944 2256 2944 2064 
L 2944 0 
L 2374 0 
L 2374 2064 
Q 2374 2454 2217 2646 
Q 2061 2838 1760 2838 
Q 1549 2838 1368 2724 
Q 1187 2611 1037 2416 
L 1037 0 
L 467 0 
z
" transform="scale(0.015625)"/>
      <path id="Lato-Regular-73" d="M 2323 2707 
Q 2285 2637 2205 2637 
Q 2157 2637 2096 2672 
Q 2035 2707 1947 2750 
Q 1859 2794 1737 2830 
Q 1616 2867 1450 2867 
Q 1306 2867 1190 2830 
Q 1075 2794 993 2730 
Q 912 2666 869 2581 
Q 826 2496 826 2397 
Q 826 2272 898 2189 
Q 970 2106 1088 2045 
Q 1206 1984 1356 1937 
Q 1507 1891 1665 1838 
Q 1824 1786 1974 1722 
Q 2125 1658 2243 1562 
Q 2362 1466 2434 1326 
Q 2506 1187 2506 992 
Q 2506 768 2426 577 
Q 2346 387 2189 248 
Q 2032 109 1805 29 
Q 1578 -51 1280 -51 
Q 941 -51 665 59 
Q 390 170 198 342 
L 333 560 
Q 358 602 393 624 
Q 429 646 486 646 
Q 544 646 608 601 
Q 672 557 763 502 
Q 854 448 984 403 
Q 1114 358 1309 358 
Q 1475 358 1600 401 
Q 1725 445 1808 518 
Q 1891 592 1931 688 
Q 1971 784 1971 893 
Q 1971 1027 1899 1115 
Q 1827 1203 1708 1265 
Q 1590 1328 1438 1374 
Q 1286 1421 1128 1472 
Q 970 1523 818 1588 
Q 666 1654 547 1753 
Q 429 1853 357 1998 
Q 285 2144 285 2352 
Q 285 2538 361 2709 
Q 438 2880 585 3009 
Q 733 3139 947 3216 
Q 1162 3293 1437 3293 
Q 1757 3293 2011 3192 
Q 2266 3091 2451 2915 
L 2323 2707 
z
" transform="scale(0.015625)"/>
      <path id="Lato-Regular-20" transform="scale(0.015625)"/>
      <path id="Lato-Regular-62" d="M 486 0 
L 486 4714 
L 1059 4714 
L 1059 2774 
Q 1261 3008 1521 3150 
Q 1782 3293 2118 3293 
Q 2400 3293 2627 3187 
Q 2854 3082 3014 2872 
Q 3174 2662 3260 2353 
Q 3347 2045 3347 1642 
Q 3347 1283 3251 974 
Q 3155 666 2974 440 
Q 2794 214 2533 84 
Q 2272 -45 1946 -45 
Q 1632 -45 1413 76 
Q 1194 198 1030 416 
L 1002 122 
Q 976 0 854 0 
L 486 0 
z
M 1933 2838 
Q 1654 2838 1444 2710 
Q 1235 2582 1059 2349 
L 1059 781 
Q 1213 570 1400 483 
Q 1587 397 1818 397 
Q 2272 397 2515 720 
Q 2758 1043 2758 1642 
Q 2758 1958 2702 2185 
Q 2646 2413 2540 2558 
Q 2435 2704 2281 2771 
Q 2128 2838 1933 2838 
z
" transform="scale(0.015625)"/>
      <path id="Lato-Regular-65" d="M 1750 3293 
Q 2042 3293 2288 3195 
Q 2534 3098 2713 2914 
Q 2893 2730 2993 2459 
Q 3094 2189 3094 1843 
Q 3094 1709 3065 1664 
Q 3037 1619 2957 1619 
L 800 1619 
Q 806 1312 883 1085 
Q 960 858 1094 706 
Q 1229 554 1414 478 
Q 1600 403 1830 403 
Q 2045 403 2200 452 
Q 2355 502 2467 560 
Q 2579 618 2654 667 
Q 2730 717 2784 717 
Q 2854 717 2893 662 
L 3053 454 
Q 2947 326 2800 232 
Q 2653 138 2485 77 
Q 2317 16 2137 -14 
Q 1958 -45 1782 -45 
Q 1446 -45 1163 68 
Q 880 182 673 401 
Q 467 621 352 944 
Q 237 1267 237 1686 
Q 237 2026 341 2320 
Q 445 2614 640 2830 
Q 835 3046 1116 3169 
Q 1398 3293 1750 3293 
z
M 1763 2874 
Q 1350 2874 1113 2635 
Q 877 2397 819 1974 
L 2582 1974 
Q 2582 2173 2528 2337 
Q 2474 2502 2368 2622 
Q 2262 2742 2110 2808 
Q 1958 2874 1763 2874 
z
" transform="scale(0.015625)"/>
      <path id="Lato-Regular-66" d="M 595 0 
L 595 2755 
L 237 2797 
Q 170 2813 126 2846 
Q 83 2880 83 2944 
L 83 3178 
L 595 3178 
L 595 3491 
Q 595 3770 673 3986 
Q 752 4202 897 4350 
Q 1043 4499 1248 4576 
Q 1453 4653 1709 4653 
Q 1926 4653 2112 4589 
L 2099 4304 
Q 2096 4240 2045 4227 
Q 1994 4214 1901 4214 
L 1802 4214 
Q 1654 4214 1534 4176 
Q 1414 4138 1328 4051 
Q 1242 3965 1195 3824 
Q 1149 3683 1149 3475 
L 1149 3178 
L 2086 3178 
L 2086 2765 
L 1168 2765 
L 1168 0 
L 595 0 
z
" transform="scale(0.015625)"/>
      <path id="Lato-Regular-72" d="M 467 0 
L 467 3242 
L 794 3242 
Q 886 3242 921 3206 
Q 957 3171 970 3085 
L 1008 2579 
Q 1174 2918 1419 3108 
Q 1664 3299 1994 3299 
Q 2128 3299 2237 3268 
Q 2346 3238 2438 3184 
L 2365 2758 
Q 2342 2678 2266 2678 
Q 2221 2678 2128 2708 
Q 2035 2739 1869 2739 
Q 1571 2739 1371 2566 
Q 1171 2394 1037 2064 
L 1037 0 
L 467 0 
z
" transform="scale(0.015625)"/>
      <path id="Lato-Regular-77" d="M 45 3242 
L 493 3242 
Q 563 3242 608 3206 
Q 653 3171 669 3123 
L 1290 1037 
Q 1315 922 1337 814 
Q 1360 707 1376 598 
Q 1402 707 1434 814 
Q 1466 922 1501 1037 
L 2186 3136 
Q 2202 3184 2242 3216 
Q 2282 3248 2342 3248 
L 2589 3248 
Q 2653 3248 2694 3216 
Q 2736 3184 2752 3136 
L 3421 1037 
Q 3456 925 3483 816 
Q 3510 707 3536 602 
Q 3552 707 3577 822 
Q 3603 938 3632 1037 
L 4266 3123 
Q 4282 3174 4326 3208 
Q 4371 3242 4432 3242 
L 4861 3242 
L 3811 0 
L 3360 0 
Q 3277 0 3245 109 
L 2528 2307 
Q 2502 2381 2486 2456 
Q 2470 2531 2454 2605 
Q 2438 2531 2422 2454 
Q 2406 2378 2381 2304 
L 1654 109 
Q 1619 0 1523 0 
L 1094 0 
L 45 3242 
z
" transform="scale(0.015625)"/>
      <path id="Lato-Regular-6b" d="M 1059 4714 
L 1059 1939 
L 1206 1939 
Q 1270 1939 1312 1956 
Q 1354 1974 1405 2029 
L 2429 3126 
Q 2477 3178 2525 3210 
Q 2573 3242 2653 3242 
L 3171 3242 
L 1978 1971 
Q 1933 1917 1889 1875 
Q 1846 1834 1792 1802 
Q 1850 1763 1896 1713 
Q 1942 1664 1984 1600 
L 3251 0 
L 2739 0 
Q 2669 0 2619 27 
Q 2570 54 2525 112 
L 1459 1440 
Q 1411 1507 1363 1528 
Q 1315 1549 1219 1549 
L 1059 1549 
L 1059 0 
L 486 0 
L 486 4714 
L 1059 4714 
z
" transform="scale(0.015625)"/>
      <path id="Lato-Regular-6e" d="M 467 0 
L 467 3242 
L 806 3242 
Q 928 3242 960 3123 
L 1005 2771 
Q 1216 3005 1477 3149 
Q 1738 3293 2080 3293 
Q 2346 3293 2549 3205 
Q 2752 3117 2888 2955 
Q 3024 2794 3094 2566 
Q 3165 2339 3165 2064 
L 3165 0 
L 2595 0 
L 2595 2064 
Q 2595 2432 2427 2635 
Q 2259 2838 1914 2838 
Q 1661 2838 1441 2716 
Q 1222 2595 1037 2387 
L 1037 0 
L 467 0 
z
" transform="scale(0.015625)"/>
      <path id="Lato-Regular-69" d="M 1101 3242 
L 1101 0 
L 531 0 
L 531 3242 
L 1101 3242 
z
M 1229 4259 
Q 1229 4176 1195 4104 
Q 1162 4032 1106 3976 
Q 1050 3920 976 3888 
Q 902 3856 819 3856 
Q 736 3856 664 3888 
Q 592 3920 536 3976 
Q 480 4032 448 4104 
Q 416 4176 416 4259 
Q 416 4342 448 4417 
Q 480 4493 536 4549 
Q 592 4605 664 4637 
Q 736 4669 819 4669 
Q 902 4669 976 4637 
Q 1050 4605 1106 4549 
Q 1162 4493 1195 4417 
Q 1229 4342 1229 4259 
z
" transform="scale(0.015625)"/>
      <path id="Lato-Regular-2c" d="M 301 394 
Q 301 467 328 532 
Q 355 598 404 648 
Q 454 698 524 726 
Q 595 755 678 755 
Q 774 755 849 720 
Q 925 685 974 622 
Q 1024 560 1049 478 
Q 1075 397 1075 301 
Q 1075 157 1033 1 
Q 992 -154 915 -306 
Q 838 -458 724 -602 
Q 611 -746 467 -867 
L 371 -774 
Q 330 -736 330 -685 
Q 330 -643 374 -598 
Q 406 -563 456 -504 
Q 506 -445 557 -368 
Q 608 -291 651 -198 
Q 694 -106 714 0 
L 672 0 
Q 589 0 521 29 
Q 454 58 404 110 
Q 355 163 328 235 
Q 301 307 301 394 
z
" transform="scale(0.015625)"/>
     </defs>
     <use xlink:href="#Lato-Regular-41"/>
     <use xlink:href="#Lato-Regular-6c" x="68.000015"/>
     <use xlink:href="#Lato-Regular-6d" x="93.600021"/>
     <use xlink:href="#Lato-Regular-6f" x="175.700027"/>
     <use xlink:href="#Lato-Regular-73" x="231.300034"/>
     <use xlink:href="#Lato-Regular-74" x="274.700043"/>
     <use xlink:href="#Lato-Regular-20" x="312.000046"/>
     <use xlink:href="#Lato-Regular-62" x="331.300049"/>
     <use xlink:href="#Lato-Regular-65" x="387.200058"/>
     <use xlink:href="#Lato-Regular-66" x="439.600067"/>
     <use xlink:href="#Lato-Regular-6f" x="473.300064"/>
     <use xlink:href="#Lato-Regular-72" x="528.90007"/>
     <use xlink:href="#Lato-Regular-65" x="569.200073"/>
     <use xlink:href="#Lato-Regular-20" x="621.600082"/>
     <use xlink:href="#Lato-Regular-77" x="640.900085"/>
     <use xlink:href="#Lato-Regular-65" x="717.500092"/>
     <use xlink:href="#Lato-Regular-20" x="769.900101"/>
     <use xlink:href="#Lato-Regular-6b" x="789.200104"/>
     <use xlink:href="#Lato-Regular-6e" x="841.600113"/>
     <use xlink:href="#Lato-Regular-65" x="897.200119"/>
     <use xlink:href="#Lato-Regular-77" x="949.600128"/>
     <use xlink:href="#Lato-Regular-20" x="1026.200134"/>
     <use xlink:href="#Lato-Regular-69" x="1045.500137"/>
     <use xlink:href="#Lato-Regular-74" x="1071.100143"/>
     <use xlink:href="#Lato-Regular-2c" x="1108.400146"/>
    </g>
    <!-- we had left the ground -->
    <g transform="translate(32.55875 138.588) scale(0.16 -0.16)">
     <defs>
      <path id="Lato-Regular-68" d="M 467 0 
L 467 4714 
L 1037 4714 
L 1037 2806 
Q 1245 3027 1497 3160 
Q 1750 3293 2080 3293 
Q 2346 3293 2549 3205 
Q 2752 3117 2888 2955 
Q 3024 2794 3094 2566 
Q 3165 2339 3165 2064 
L 3165 0 
L 2595 0 
L 2595 2064 
Q 2595 2432 2427 2635 
Q 2259 2838 1914 2838 
Q 1661 2838 1441 2716 
Q 1222 2595 1037 2387 
L 1037 0 
L 467 0 
z
" transform="scale(0.015625)"/>
      <path id="Lato-Regular-64" d="M 2749 0 
Q 2627 0 2595 118 
L 2544 512 
Q 2336 259 2069 107 
Q 1802 -45 1456 -45 
Q 1178 -45 950 62 
Q 723 170 563 378 
Q 403 586 316 896 
Q 230 1206 230 1610 
Q 230 1968 326 2277 
Q 422 2586 603 2813 
Q 784 3040 1043 3169 
Q 1302 3299 1632 3299 
Q 1930 3299 2141 3198 
Q 2352 3098 2518 2915 
L 2518 4714 
L 3088 4714 
L 3088 0 
L 2749 0 
z
M 1645 416 
Q 1923 416 2132 544 
Q 2342 672 2518 906 
L 2518 2474 
Q 2362 2685 2174 2769 
Q 1987 2854 1760 2854 
Q 1306 2854 1062 2531 
Q 819 2208 819 1610 
Q 819 1293 873 1067 
Q 928 842 1033 696 
Q 1139 550 1292 483 
Q 1446 416 1645 416 
z
" transform="scale(0.015625)"/>
      <path id="Lato-Regular-67" d="M 1558 3296 
Q 1770 3296 1954 3249 
Q 2138 3203 2288 3114 
L 3168 3114 
L 3168 2902 
Q 3168 2797 3034 2768 
L 2666 2717 
Q 2774 2509 2774 2253 
Q 2774 2016 2683 1822 
Q 2592 1629 2430 1491 
Q 2269 1354 2046 1280 
Q 1824 1206 1558 1206 
Q 1331 1206 1130 1261 
Q 1027 1197 974 1123 
Q 922 1050 922 979 
Q 922 864 1014 805 
Q 1107 746 1260 720 
Q 1414 694 1609 688 
Q 1805 682 2008 667 
Q 2211 653 2406 617 
Q 2602 582 2755 502 
Q 2909 422 3001 281 
Q 3094 141 3094 -83 
Q 3094 -291 2990 -486 
Q 2886 -682 2691 -834 
Q 2496 -986 2214 -1077 
Q 1933 -1168 1578 -1168 
Q 1222 -1168 955 -1097 
Q 688 -1027 512 -908 
Q 336 -790 248 -635 
Q 160 -480 160 -310 
Q 160 -70 312 98 
Q 464 266 730 365 
Q 592 429 510 536 
Q 429 643 429 822 
Q 429 893 454 968 
Q 480 1043 533 1116 
Q 586 1190 662 1257 
Q 739 1325 842 1376 
Q 602 1510 466 1732 
Q 330 1955 330 2253 
Q 330 2490 421 2683 
Q 512 2877 675 3013 
Q 838 3149 1064 3222 
Q 1290 3296 1558 3296 
z
M 2570 -176 
Q 2570 -54 2502 19 
Q 2435 93 2320 133 
Q 2205 173 2054 192 
Q 1904 211 1737 219 
Q 1571 227 1398 236 
Q 1226 246 1069 272 
Q 886 186 772 61 
Q 659 -64 659 -237 
Q 659 -346 715 -440 
Q 771 -534 886 -603 
Q 1002 -672 1176 -712 
Q 1350 -752 1587 -752 
Q 1818 -752 2000 -710 
Q 2182 -669 2308 -592 
Q 2435 -515 2502 -409 
Q 2570 -304 2570 -176 
z
M 1558 1584 
Q 1731 1584 1864 1632 
Q 1997 1680 2086 1766 
Q 2176 1853 2221 1973 
Q 2266 2093 2266 2237 
Q 2266 2534 2085 2710 
Q 1904 2886 1558 2886 
Q 1216 2886 1035 2710 
Q 854 2534 854 2237 
Q 854 2093 900 1973 
Q 947 1853 1036 1766 
Q 1126 1680 1257 1632 
Q 1389 1584 1558 1584 
z
" transform="scale(0.015625)"/>
      <path id="Lato-Regular-75" d="M 960 3242 
L 960 1174 
Q 960 806 1129 604 
Q 1299 403 1642 403 
Q 1891 403 2112 521 
Q 2333 640 2518 851 
L 2518 3242 
L 3088 3242 
L 3088 0 
L 2749 0 
Q 2627 0 2595 118 
L 2550 467 
Q 2339 234 2076 91 
Q 1814 -51 1475 -51 
Q 1210 -51 1006 37 
Q 803 125 665 285 
Q 528 445 459 672 
Q 390 899 390 1174 
L 390 3242 
L 960 3242 
z
" transform="scale(0.015625)"/>
     </defs>
     <use xlink:href="#Lato-Regular-77"/>
     <use xlink:href="#Lato-Regular-65" x="76.600006"/>
     <use xlink:href="#Lato-Regular-20" x="129.000015"/>
     <use xlink:href="#Lato-Regular-68" x="148.300018"/>
     <use xlink:href="#Lato-Regular-61" x="203.900024"/>
     <use xlink:href="#Lato-Regular-64" x="254.600037"/>
     <use xlink:href="#Lato-Regular-20" x="310.500046"/>
     <use xlink:href="#Lato-Regular-6c" x="329.800049"/>
     <use xlink:href="#Lato-Regular-65" x="355.400055"/>
     <use xlink:href="#Lato-Regular-66" x="407.800064"/>
     <use xlink:href="#Lato-Regular-74" x="441.500061"/>
     <use xlink:href="#Lato-Regular-20" x="478.800064"/>
     <use xlink:href="#Lato-Regular-74" x="498.100067"/>
     <use xlink:href="#Lato-Regular-68" x="535.40007"/>
     <use xlink:href="#Lato-Regular-65" x="591.000076"/>
     <use xlink:href="#Lato-Regular-20" x="643.400085"/>
     <use xlink:href="#Lato-Regular-67" x="662.700089"/>
     <use xlink:href="#Lato-Regular-72" x="713.800095"/>
     <use xlink:href="#Lato-Regular-6f" x="754.100098"/>
     <use xlink:href="#Lato-Regular-75" x="809.700104"/>
     <use xlink:href="#Lato-Regular-6e" x="865.30011"/>
     <use xlink:href="#Lato-Regular-64" x="920.900116"/>
    </g>
   </g>
  </g>
 </g>
</svg>
